<svg width="19" height="20" viewBox="0 0 19 20" fill="none" xmlns="http://www.w3.org/2000/svg">
<path fill-rule="evenodd" clip-rule="evenodd" d="M13.3761 2.63922C13.0517 2.69656 13.0517 3.17006 13.3761 3.22749C14.5512 3.43539 15.4858 4.34546 15.7409 5.53026L15.7604 5.62105C15.8306 5.94709 16.287 5.94907 16.3601 5.62378L16.3837 5.51795C16.6483 4.3387 17.5832 3.43623 18.755 3.22899C19.081 3.17129 19.081 2.69543 18.755 2.63772C17.5894 2.43151 16.6581 1.53751 16.3881 0.367479C16.3802 0.33355 16.3726 0.299539 16.3651 0.265544L16.365 0.26497L16.3601 0.242918C16.287 -0.0824268 15.8306 -0.0803967 15.7604 0.245578L15.7535 0.277601L15.7382 0.348756C15.4793 1.52752 14.5471 2.43206 13.3761 2.63922ZM0.663463 11.2788C-0.221154 11.4325 -0.221154 12.7025 0.663463 12.8565C3.86829 13.4141 6.41725 15.855 7.11289 19.0327L7.1662 19.2762C7.35768 20.1507 8.60244 20.156 8.80159 19.2835L8.86612 18.9997C9.58757 15.8368 12.1373 13.4164 15.3332 12.8605C16.2223 12.7058 16.2223 11.4295 15.3332 11.2747C12.1542 10.7217 9.61454 8.32389 8.87797 5.1858C8.85639 5.09429 8.83567 5.00255 8.81496 4.91086L8.80159 4.85172C8.60244 3.97912 7.35768 3.98457 7.1662 4.85885L7.14746 4.94474L7.10555 5.13558C6.39951 8.2971 3.85712 10.7231 0.663463 11.2788Z" fill="url(#paint0_linear_1741_5830)"/>
<defs>
<linearGradient id="paint0_linear_1741_5830" x1="-17" y1="35.5" x2="23.5" y2="-2" gradientUnits="userSpaceOnUse">
<stop offset="0.117823" stop-color="#4A83F0"/>
<stop offset="0.633424" stop-color="#DB67D2"/>
<stop offset="1" stop-color="#D96570"/>
</linearGradient>
</defs>
</svg>
