<svg width="18" height="17" viewBox="0 0 18 17" fill="none" xmlns="http://www.w3.org/2000/svg">
<path d="M6.80734 16.0801C6.84853 16.2621 7.01052 16.3917 7.19771 16.3917C7.3849 16.3917 7.5469 16.2621 7.58809 16.0801C8.48764 12.0987 9.10401 11.482 13.0858 10.5824C13.2682 10.5408 13.3974 10.3792 13.3974 10.192C13.3974 10.0048 13.2678 9.84326 13.0858 9.80166C9.10401 8.90251 8.48724 8.28574 7.58809 4.30396C7.5469 4.12197 7.3849 3.99238 7.19771 3.99238C7.01052 3.99238 6.84853 4.12197 6.80734 4.30396C5.90779 8.28574 5.29142 8.90251 1.30964 9.80166C1.12725 9.84326 0.997656 10.0048 0.997656 10.192C0.997656 10.3792 1.12725 10.5408 1.30964 10.5824C5.29142 11.482 5.90779 12.0987 6.80734 16.0801ZM7.19771 6.02187C7.93047 8.53293 8.85722 9.45968 11.3683 10.1924C8.85722 10.9252 7.93047 11.8519 7.19771 14.363C6.46495 11.8523 5.53821 10.9252 3.02714 10.1924C5.53821 9.45968 6.46495 8.53333 7.19771 6.02187Z" fill="url(#paint0_linear_1554_2479)"/>
<path d="M16.6861 3.60302C14.5694 3.12505 14.2722 2.82787 13.7942 0.711583C13.7526 0.529193 13.591 0.4 13.4039 0.4C13.2167 0.4 13.0551 0.529193 13.0135 0.711583C12.5355 2.82787 12.2383 3.12505 10.122 3.60302C9.93964 3.64462 9.81045 3.80621 9.81045 3.9934C9.81045 4.18059 9.93964 4.34218 10.122 4.38378C12.2383 4.86175 12.5355 5.15894 13.0135 7.27562C13.0551 7.45761 13.2167 7.5872 13.4039 7.5872C13.591 7.5872 13.7526 7.45761 13.7942 7.27562C14.2722 5.15894 14.5694 4.86175 16.6861 4.38378C16.8681 4.34218 16.9977 4.18059 16.9977 3.9934C16.9977 3.80621 16.8681 3.64462 16.6861 3.60302ZM13.4039 5.72331C13.0559 4.81256 12.5851 4.34138 11.6739 3.9934C12.5851 3.64542 13.0559 3.17465 13.4039 2.2635C13.7518 3.17465 14.223 3.64542 15.1338 3.9934C14.223 4.34138 13.7518 4.81256 13.4039 5.72331Z" fill="url(#paint1_linear_1554_2479)"/>
<path fill-rule="evenodd" clip-rule="evenodd" d="M6.41717 16.1683C5.96431 14.1639 5.60247 13.1295 4.93147 12.4584C4.26048 11.7874 3.22602 11.4254 1.22149 10.9726C0.858102 10.8897 0.597656 10.5669 0.597656 10.192C0.597656 9.81721 0.857303 9.49455 1.22069 9.41167C3.22522 8.95902 4.2605 8.59698 4.93147 7.92596C5.60246 7.25493 5.96431 6.22038 6.41717 4.21582C6.49965 3.85146 6.82373 3.59238 7.19771 3.59238C7.5717 3.59238 7.89574 3.85129 7.97822 4.21565C8.43088 6.22018 8.79278 7.25493 9.4638 7.92596C10.1348 8.59698 11.1694 8.95883 13.1739 9.41148L13.1749 9.41171C13.538 9.4947 13.7974 9.81742 13.7974 10.192C13.7974 10.5663 13.5387 10.8894 13.1747 10.9724C11.1702 11.4253 10.1349 11.7874 9.46396 12.4584C8.79296 13.1295 8.43112 14.1639 7.97826 16.1683C7.89578 16.5326 7.57169 16.7917 7.19771 16.7917C6.82373 16.7917 6.49965 16.5326 6.41717 16.1683ZM7.58809 4.30396C8.48724 8.28574 9.10401 8.90251 13.0858 9.80166C13.2678 9.84326 13.3974 10.0048 13.3974 10.192C13.3974 10.3792 13.2682 10.5408 13.0858 10.5824C9.10401 11.482 8.48764 12.0987 7.58809 16.0801C7.5469 16.2621 7.3849 16.3917 7.19771 16.3917C7.01052 16.3917 6.84853 16.2621 6.80734 16.0801C5.90779 12.0987 5.29142 11.482 1.30964 10.5824C1.12725 10.5408 0.997656 10.3792 0.997656 10.192C0.997656 10.0048 1.12725 9.84326 1.30964 9.80166C5.29142 8.90251 5.90779 8.28574 6.80734 4.30396C6.84853 4.12197 7.01052 3.99238 7.19771 3.99238C7.3849 3.99238 7.5469 4.12197 7.58809 4.30396ZM16.7742 3.21285L16.7752 3.21308C17.1382 3.29606 17.3977 3.61878 17.3977 3.9934C17.3977 4.36802 17.1382 4.69074 16.7752 4.77372L16.7742 4.77396C15.6986 5.01684 15.2129 5.19364 14.9085 5.49803C14.6041 5.80242 14.4273 6.28814 14.1844 7.36373L14.1842 7.36475C14.1012 7.72779 13.7785 7.9872 13.4039 7.9872C13.0292 7.9872 12.7065 7.72779 12.6235 7.36475L12.6233 7.36373C12.3804 6.28814 12.2036 5.8024 11.8993 5.49801C11.5949 5.19363 11.1093 5.01683 10.0339 4.77395C9.66993 4.69094 9.41045 4.36763 9.41045 3.9934C9.41045 3.61917 9.66911 3.29605 10.0331 3.21304C11.1085 2.97016 11.5949 2.79318 11.8993 2.48883C12.2036 2.18448 12.3804 1.69884 12.6233 0.62346C12.7063 0.259481 13.0296 0 13.4039 0C13.7781 0 14.1012 0.258658 14.1842 0.622639C14.4271 1.69802 14.6041 2.18446 14.9085 2.48881C15.2129 2.79317 15.6986 2.96997 16.7742 3.21285ZM13.0135 7.27562C12.5355 5.15894 12.2383 4.86175 10.122 4.38378C9.93964 4.34218 9.81045 4.18059 9.81045 3.9934C9.81045 3.80621 9.93964 3.64462 10.122 3.60302C12.2383 3.12505 12.5355 2.82787 13.0135 0.711583C13.0551 0.529193 13.2167 0.4 13.4039 0.4C13.591 0.4 13.7526 0.529193 13.7942 0.711583C14.2722 2.82787 14.5694 3.12505 16.6861 3.60302C16.8681 3.64462 16.9977 3.80621 16.9977 3.9934C16.9977 4.18059 16.8681 4.34218 16.6861 4.38378C14.5694 4.86175 14.2722 5.15894 13.7942 7.27562C13.7526 7.45761 13.591 7.5872 13.4039 7.5872C13.2167 7.5872 13.0551 7.45761 13.0135 7.27562ZM7.19771 6.02187C7.12929 6.25638 7.05917 6.47708 6.98623 6.68509C6.35101 8.49662 5.50162 9.34577 3.69032 9.98095C3.48232 10.0539 3.26164 10.124 3.02714 10.1924C3.26164 10.2609 3.48232 10.331 3.69031 10.4039C5.50159 11.0392 6.35098 11.8888 6.9862 13.6999C7.05915 13.9079 7.12928 14.1285 7.19771 14.363C7.26614 14.1285 7.33626 13.9079 7.4092 13.6999C8.04443 11.8886 8.89381 11.0392 10.7051 10.4039C10.9131 10.331 11.1338 10.2609 11.3683 10.1924C11.1338 10.124 10.9131 10.0539 10.7051 9.98094C8.89383 9.34572 8.04445 8.49634 7.40922 6.68508C7.33627 6.47707 7.26615 6.25638 7.19771 6.02187ZM7.19774 7.25763C6.90075 7.9883 6.5436 8.57558 6.06212 9.05702C5.58067 9.53844 4.9934 9.89552 4.26284 10.1925C4.99343 10.4895 5.5807 10.8467 6.06215 11.3282C6.54358 11.8096 6.90071 12.3969 7.19769 13.1274C7.49468 12.3968 7.85183 11.8095 8.33329 11.328C8.81475 10.8466 9.40201 10.4894 10.1326 10.1924C9.40201 9.89545 8.81475 9.53831 8.33329 9.05686C7.85186 8.57542 7.49472 7.98817 7.19774 7.25763ZM13.1794 5.23011C12.9328 4.77892 12.6185 4.46458 12.1673 4.21783C12.0185 4.1365 11.8549 4.06252 11.6739 3.9934C11.8549 3.92428 12.0186 3.85031 12.1673 3.769C12.6186 3.52232 12.9328 3.2081 13.1795 2.75683C13.2608 2.6081 13.3347 2.44449 13.4039 2.2635C13.473 2.44448 13.547 2.60809 13.6283 2.75681C13.875 3.20809 14.1894 3.5223 14.6406 3.76899C14.7893 3.8503 14.9528 3.92428 15.1338 3.9934C14.9528 4.06252 14.7893 4.13651 14.6406 4.21784C14.1894 4.46459 13.875 4.77893 13.6283 5.23013C13.547 5.37883 13.473 5.5424 13.4039 5.72331C13.3347 5.54239 13.2608 5.37881 13.1794 5.23011ZM13.4039 4.82556C13.295 4.65752 13.1727 4.50431 13.033 4.3645C12.8932 4.22468 12.7399 4.10234 12.5719 3.99344C12.7399 3.88457 12.8931 3.76228 13.0329 3.62248C13.1727 3.48269 13.295 3.32948 13.4039 3.16141C13.5128 3.32949 13.6351 3.48271 13.775 3.62251C13.9148 3.76229 14.068 3.88458 14.236 3.99344C14.068 4.10234 13.9147 4.22466 13.7749 4.36447C13.6351 4.50428 13.5128 4.6575 13.4039 4.82556Z" fill="url(#paint2_linear_1554_2479)"/>
<defs>
<linearGradient id="paint0_linear_1554_2479" x1="1.5" y1="11.3682" x2="17.3977" y2="8.39585" gradientUnits="userSpaceOnUse">
<stop stop-color="#4A83F0"/>
<stop offset="0.546886" stop-color="#DB67D2"/>
<stop offset="1" stop-color="#D96570"/>
</linearGradient>
<linearGradient id="paint1_linear_1554_2479" x1="1.5" y1="11.3682" x2="17.3977" y2="8.39585" gradientUnits="userSpaceOnUse">
<stop stop-color="#4A83F0"/>
<stop offset="0.546886" stop-color="#DB67D2"/>
<stop offset="1" stop-color="#D96570"/>
</linearGradient>
<linearGradient id="paint2_linear_1554_2479" x1="1.5" y1="11.3682" x2="17.3977" y2="8.39585" gradientUnits="userSpaceOnUse">
<stop stop-color="#4A83F0"/>
<stop offset="0.546886" stop-color="#DB67D2"/>
<stop offset="1" stop-color="#D96570"/>
</linearGradient>
</defs>
</svg>
