<svg width="22" height="18" viewBox="0 0 22 18" fill="none" xmlns="http://www.w3.org/2000/svg">
<path d="M17.6844 6.78799C17.6667 8.10906 16.4791 9.26427 15.1747 9.22304C13.8252 9.1779 12.721 8.0384 12.7465 6.70849C12.7481 6.38182 12.8145 6.05871 12.9418 5.75788C13.0691 5.45704 13.2549 5.18446 13.4883 4.95591C13.7217 4.72737 13.9982 4.54742 14.3016 4.42647C14.6051 4.30552 14.9295 4.24598 15.2561 4.2513C15.5828 4.25663 15.9051 4.32671 16.2045 4.45748C16.5038 4.58825 16.7742 4.77713 17.0001 5.01315C17.2259 5.24918 17.4027 5.52767 17.5202 5.8325C17.6376 6.13732 17.6934 6.46243 17.6844 6.78897V6.78799Z" fill="#4284F3"/>
<path d="M21.8449 5.29697C20.9616 1.07661 16.4321 -1.16608 12.5071 0.616292C11.9536 0.867551 11.4913 1.26211 10.9456 1.51827C10.7679 1.55066 10.6835 1.70181 10.5697 1.81272C9.93466 2.43988 9.3124 3.08177 8.67051 3.70207L8.64892 3.72366C8.6764 3.73838 8.7029 3.75507 8.7294 3.77077C8.12481 4.38518 7.54475 5.02805 6.90875 5.6081C5.76533 6.65141 4.9134 7.8655 4.46389 9.35735L4.38635 9.28767L4.35396 9.40643C3.96137 11.3596 4.27937 13.1606 5.51014 14.7653C5.85072 15.1147 6.18049 15.4759 6.53285 15.8116C8.9306 18.0955 13.1627 18.0807 15.5183 15.7684C17.0779 14.2284 18.6482 12.6954 20.1656 11.1181C21.7399 9.48593 22.3062 7.50137 21.8449 5.29697ZM17.9612 8.91471C16.5233 10.3869 15.057 11.8336 13.5848 13.2725C12.8212 14.0174 11.9712 14.3423 10.9927 14.3423C10.3049 14.3481 9.63061 14.1508 9.05445 13.7751C8.47828 13.3994 8.02583 12.8619 7.75381 12.2301C7.19436 10.9071 7.47408 9.47513 8.50955 8.43967C9.91633 7.03026 11.3297 5.62577 12.7495 4.22618C13.7987 3.19759 15.0541 2.8894 16.4478 3.33107C17.7541 3.74427 18.5599 4.6649 18.8033 6.01836C19.0016 7.10976 18.7395 8.11676 17.9612 8.91471Z" fill="#4284F3"/>
<path d="M10.9452 1.51629C10.2886 2.34761 9.4857 3.03661 8.72898 3.7737C8.70248 3.75799 8.67598 3.74131 8.6485 3.72659C6.52065 2.49188 3.98254 3.34381 3.30336 5.57668C2.85973 7.03516 3.2906 8.27378 4.38299 9.28667L4.46052 9.35636C4.32802 10.3899 4.24362 11.4175 4.51941 12.449C4.69392 13.0923 4.95057 13.7105 5.283 14.2883C5.36937 14.4394 5.51856 14.5661 5.50678 14.7643C4.17786 13.4442 2.77238 12.1801 1.52884 10.7775C-0.705006 8.25612 -0.445895 4.35571 2.01173 1.90103C4.22006 -0.305334 8.05765 -0.78724 10.9452 1.51629Z" fill="#003144"/>
<path d="M17.6844 6.78799C17.6667 8.10906 16.4791 9.26427 15.1747 9.22304C13.8252 9.1779 12.721 8.0384 12.7465 6.70849C12.7481 6.38182 12.8145 6.05871 12.9418 5.75788C13.0691 5.45704 13.2549 5.18446 13.4883 4.95591C13.7217 4.72737 13.9982 4.54742 14.3016 4.42647C14.6051 4.30552 14.9295 4.24598 15.2561 4.2513C15.5828 4.25663 15.9051 4.32671 16.2045 4.45748C16.5038 4.58825 16.7742 4.77713 17.0001 5.01315C17.2259 5.24918 17.4027 5.52767 17.5202 5.8325C17.6376 6.13732 17.6934 6.46243 17.6844 6.78897V6.78799Z" fill="#FEFEFE"/>
<path d="M17.6844 6.78799C17.6667 8.10906 16.4791 9.26427 15.1747 9.22304C13.8252 9.1779 12.721 8.0384 12.7465 6.70849C12.7481 6.38182 12.8145 6.05871 12.9418 5.75788C13.0691 5.45704 13.2549 5.18446 13.4883 4.95591C13.7217 4.72737 13.9982 4.54742 14.3016 4.42647C14.6051 4.30552 14.9295 4.24598 15.2561 4.2513C15.5828 4.25663 15.9051 4.32671 16.2045 4.45748C16.5038 4.58825 16.7742 4.77713 17.0001 5.01315C17.2259 5.24918 17.4027 5.52767 17.5202 5.8325C17.6376 6.13732 17.6934 6.46243 17.6844 6.78897V6.78799Z" fill="#4285F3"/>
</svg>
