<?xml version="1.0" encoding="utf-8"?>
<!-- Generator: Adobe Illustrator 27.5.0, SVG Export Plug-In . SVG Version: 6.00 Build 0)  -->
<svg version="1.1" xmlns="http://www.w3.org/2000/svg" xmlns:xlink="http://www.w3.org/1999/xlink" x="0px" y="0px"
	 viewBox="0 0 1500 1122" style="enable-background:new 0 0 1500 1122;" xml:space="preserve">
<g id="background">
	<g>
		<g>
			<rect style="fill:#FFFFFF;" width="1500" height="1122"/>
		</g>
	</g>
</g>
<g id="shadow">
	<path style="opacity:0.4;fill:#EED5D5;" d="M1282.829,880.797H323.512c-30.344,0-55.171,15.042-55.171,33.427l0,0
		c0,12.731,11.909,23.854,29.306,29.495h-84.476c-30.344,0-55.171,15.042-55.171,33.427l0,0c0,18.385,24.827,33.427,55.171,33.427
		h29.436c-8.221,5.841-13.209,13.397-13.209,21.629v13.371c0,18.385,24.827,33.427,55.171,33.427h945.039
		c30.344,0,55.171-15.042,55.171-33.427v-13.371c0-18.385-24.827-33.427-55.171-33.427l-64.257,0.743
		c4.895,0,12.842-2.339,18.174-7.043c9.349-8.247,9.763-20.799,5.193-31.189c-2.963-6.736-7.71-12.077-19.472-14.086l113.586,0.451
		c30.344,0,55.171-15.042,55.171-33.427l0,0C1338,895.839,1313.173,880.797,1282.829,880.797z"/>
</g>
<g id="object">
	<g>
		<polygon style="fill:#8CABEF;" points="550.055,433 569.055,438 649.055,508 637.055,546 598.055,546 		"/>
		<g>
			<polygon style="fill:#ABC3EF;" points="1008,463 943,512 888,522 888,542 968.678,535.578 1043,497 1029,455.407 			"/>
		</g>
		<g>
			<g>
				<polygon style="fill:#211E1C;" points="1095.25,1001.716 1096.222,1011.317 1078.807,1023.289 1068.643,1014.873 
					1076.865,1004.087 1094.279,992.115 				"/>
			</g>
			<g>
				<polygon style="fill:#CAB5A1;" points="1094.816,708.176 1097.766,737.334 1071.65,837.515 1095.9,998.498 1078.05,1004.659 
					1030.981,847.491 1023.511,801.768 1023.783,704.975 				"/>
			</g>
		</g>
		<g>
			<g>
				<polygon style="fill:#CAB5A1;" points="957.527,740.674 995.073,1010.425 1012.139,1010.425 1015.211,837.515 1046.272,716.151 
									"/>
			</g>
			<g>
				<polygon style="fill:#211E1C;" points="1012.041,1008.292 1012.041,1017.981 993.586,1027.671 984.358,1017.981 
					993.586,1008.292 				"/>
			</g>
		</g>
		<g>
			<g>
				<path style="fill:#8CABEF;" d="M1093.873,675.759c-14.576-95.786-9.37-165.544-10.126-184.698
					c-0.755-19.154-14.199-29.094-14.206-29.097c-5.899-1.314-11.033-5.113-16.991-6.612c-40.302-10.14-62.283,20.633-77.369,53.822
					c-18.588,40.894-34.205,83.151-46.829,126.258c-11.08,37.833-22.185,76.007-26.832,115.27
					c-1.917,16.201-3.517,31.564,14.22,38.711c28.264,11.389,60.026,11.14,89.88,14.792c34.292,4.195,68.63,7.259,103.15,8.695
					C1126.791,813.65,1108.449,771.546,1093.873,675.759z"/>
			</g>
		</g>
		<g>
			<path style="fill:#474EBB;" d="M1017.872,309.436c-122.257,2.414-171.119-63.737-177.568-73.353c0,0-0.006-0.836-0.381-0.576
				c-0.248-0.382-0.57,0.389-0.57,0.389c-9.601,6.472-79.809,49.299-192.12,0.939c0,0-59.337,207.475-7.831,306.945
				c55.012,106.242,111.196,146.112,111.552,145.933c0.262,0.3,67.762-14.794,158.366-93.062
				C994.085,523.427,1017.872,309.436,1017.872,309.436z"/>
		</g>
		<g>
			<path style="fill:#525FCE;" d="M996.46,327.778c-110.854,1.755-155.376-57.338-161.256-65.925c0,0-0.008-0.745-0.347-0.514
				c-0.226-0.341-0.515,0.345-0.515,0.345c-8.685,5.735-72.212,43.663-174.211,0.215c0,0-53.135,184.649-6.108,273.435
				c50.228,94.83,100.263,135.546,100.586,135.388c0.239,0.268,62.44-17.974,144.346-87.412
				C975.583,518.347,996.46,327.778,996.46,327.778z"/>
		</g>
		<g>
			<g>
				<path style="fill:#5E6ADD;" d="M830.674,280.192c0,0,0.303-0.719,0.54-0.362c0.354-0.242,0.363,0.538,0.363,0.538
					c6.038,8.819,50.999,68.489,162.204,69.076c3.231-19.247,4.567-31.428,4.567-31.428
					c-110.854,1.755-155.377-57.338-161.256-65.925c0,0-0.008-0.745-0.347-0.514c-0.227-0.342-0.515,0.345-0.515,0.345
					c-8.685,5.735-72.211,43.663-174.211,0.215c0,0-3.388,11.775-7.695,30.801C757.575,324.397,821.753,286.083,830.674,280.192z"/>
			</g>
		</g>
		<g style="opacity:0.34;">
			<path style="fill:#FFFFFF;" d="M954.686,373.797c-83.818,1.655-126.517-47.498-130.938-54.09c0,0-0.004-0.573-0.261-0.395
				c-0.17-0.262-0.391,0.267-0.391,0.267c-6.582,4.437-64.137,33.845-141.137,0.69c0,0-31.26,142.197,4.051,210.393
				c37.716,72.839,76.235,100.173,76.479,100.051c0.18,0.206,46.457-10.142,108.574-63.803
				C929.179,516.707,954.686,373.797,954.686,373.797z"/>
		</g>
		<g>
			<polygon style="fill:#D67086;" points="920.57,733.788 973,710 1007,674 1018,686 990,729 947.194,762.065 			"/>
		</g>
		<g>
			<polygon style="fill:#D67086;" points="878.339,762 850.373,714.105 847.685,656.167 863.667,655.425 873.21,710.042 
				899.249,731.858 			"/>
		</g>
		<g>
			<polygon style="fill:#8CABEF;" points="872.21,903.535 872.21,1014.974 889.031,1014.974 899.544,947.69 909.005,896.176 			"/>
		</g>
		<g>
			<polygon style="fill:#8CABEF;" points="909.005,891.971 915.313,940.331 923.724,1018.128 940.545,1017.076 940.545,957.152 
				948.955,896.176 			"/>
		</g>
		<g>
			<path style="fill:#D67086;" d="M901.121,729.544c0,0-17.872-3.154-25.231,24.18c-7.359,27.334-27.334,107.233-28.385,149.286
				c-1.051,42.052,26.283,14.718,58.873,19.975c32.59,5.257,59.399,5.782,59.399-13.141
				C965.776,890.919,977.341,730.069,901.121,729.544z"/>
		</g>
		<g>
			<g>
				<g>
					<path style="fill:#FCD8B9;" d="M890.862,675.214c14.886-26.252,48.236-9.454,50.521,16.699
						c1.299,14.872-8.655,39.672-26.169,38.414c-1.093,2.401-3.005,6.948-5.468,7.962c-2.667,1.098-8.552-2.825-10.887-4.278
						c-0.647-0.403-1.313-0.856-1.648-1.541c-0.419-0.858,0.059-2.609,0.695-4.514c-1.818-0.762-3.6-1.776-5.322-3.076
						c-7.228-5.457-10.548-15.019-10.178-24.08C882.776,691.74,886.388,683.103,890.862,675.214z"/>
				</g>
			</g>
			<g>
				<path style="fill:#292949;" d="M911.638,668.392c0,0,23.819,5.955,23.819,15.879c0,14.92,0.992,24.932,0,33.804l16.872-9.985
					l9.924-27.789c0,0-1.985-22.826-13.894-26.796c-11.909-3.97-36.721-7.94-36.721-7.94l-18.857,5.955l-13.894-0.992l4.804,41.683
					C883.69,692.211,889.804,662.438,911.638,668.392z"/>
			</g>
		</g>
		<g>
			<polygon style="fill:#2A2C2D;" points="872.21,1014.974 862.748,1024.436 866.953,1030.744 885.877,1024.436 885.877,1014.974 
							"/>
		</g>
		<g>
			<polygon style="fill:#2A2C2D;" points="926.527,1017.953 930.032,1031.795 941.596,1036 947.904,1032.846 938.112,1017.229 			
				"/>
		</g>
		<g>
			<polygon style="fill:#FCD8B9;" points="1007,674 1009,662 1013,662 1021,654 1024,660 1022,675 1014.905,681.82 			"/>
		</g>
		<g>
			<polygon style="fill:#FCD8B9;" points="860.329,655.58 869,642 865,637 860,642 855,628 844,633 849.655,656.076 			"/>
		</g>
		<g>
			<polygon style="fill:#ABC3EF;" points="1084,513.836 991,583 886.199,577.198 886.8,556.034 976.442,546.011 1047.224,485.309 
				1085.119,473.654 			"/>
		</g>
		<g>
			<polygon style="fill:#FCD8B9;" points="886.941,556.545 863.345,555.907 851.932,567.543 855.141,573.877 868.489,576.352 
				886.366,571.296 			"/>
		</g>
		<g>
			<g>
				<path style="fill:#292949;" d="M1028.84,363.042c0,0-12.917,6.115-15.897,39.704c-2.981,33.589-11.284,54.056-11.284,54.056
					s9.86,7.814,19.198,4.77c9.339-3.044,12.621-3.301,12.853-17.19c0.232-13.889,9.733-78.042,9.733-78.042L1028.84,363.042z"/>
			</g>
			<g>
				<path style="fill:#292949;" d="M1052.756,380.583c-13.109,0.313-25.599,9.29-30.093,21.629
					c-5.153-7.925-6.19-18.386-2.694-27.177c3.495-8.792,11.431-15.68,20.616-17.898c6.604,5.935,10.727,14.558,11.203,23.435
					L1052.756,380.583z"/>
			</g>
			<g>
				<path style="fill:#FCD8B9;" d="M1023.697,390.853c14.674-31.961,55.068-15.773,60.321,14.366
					c2.987,17.139-6.105,46.925-26.567,47.205c-1.031,2.896-2.799,8.366-5.557,9.788c-2.988,1.54-10.211-2.429-13.066-3.885
					c-0.792-0.403-1.609-0.863-2.067-1.626c-0.572-0.954-0.191-3.036,0.358-5.31c-2.186-0.704-4.356-1.704-6.486-3.043
					c-8.935-5.617-13.741-16.39-14.212-26.947C1015.951,410.845,1019.287,400.457,1023.697,390.853z"/>
			</g>
			<g>
				<path style="fill:#292949;" d="M1041.411,357.251c0,0-8.56,17.184,13.425,28.01c21.985,10.826,32.559,32.763,23.78,50.966
					c-8.78,18.202-29.472,28.081-21.633,35.392c7.839,7.311,42.438,10.543,42.438,10.543s37.028-62.679,17.026-98.76
					C1096.445,347.321,1057.289,336.521,1041.411,357.251z"/>
			</g>
		</g>
		<g>
			<g>
				<path style="fill:#FFFFFF;" d="M686.725,429.341l5.647-28.868l3.791,0.742l-5.647,28.868L686.725,429.341z"/>
			</g>
			<g>
				<path style="fill:#FFFFFF;" d="M721.448,406.162l3.789,0.741l-5.648,28.867l-3.789-0.741l-10.764-25.894l-4.482,22.911
					l-3.791-0.742l5.647-28.867l3.791,0.741l10.764,25.894L721.448,406.162z"/>
			</g>
			<g>
				<path style="fill:#FFFFFF;" d="M733.063,416.435c-0.206,1.056-0.087,1.987,0.36,2.795c0.449,0.809,1.098,1.469,1.948,1.981
					c0.851,0.513,1.817,1.005,2.892,1.474c1.076,0.471,2.145,0.976,3.207,1.515c1.06,0.539,2.002,1.149,2.82,1.827
					c0.818,0.68,1.422,1.576,1.811,2.69c0.388,1.113,0.438,2.407,0.149,3.878c-0.44,2.25-1.685,4.039-3.732,5.369
					c-2.049,1.329-4.537,1.707-7.467,1.134c-2.93-0.573-5.182-1.712-6.75-3.418c-1.568-1.705-2.127-3.71-1.676-6.016l4.039,0.79
					c-0.145,1.328,0.169,2.484,0.942,3.472c0.773,0.987,2.076,1.66,3.908,2.019c1.834,0.359,3.384,0.173,4.652-0.561
					c1.267-0.732,2.025-1.729,2.273-2.993c0.247-1.264,0.146-2.292-0.307-3.088c-0.449-0.794-1.1-1.447-1.951-1.96
					c-0.851-0.513-1.816-0.997-2.894-1.453c-1.078-0.455-2.147-0.96-3.207-1.515c-1.061-0.553-1.999-1.175-2.815-1.868
					c-0.815-0.693-1.416-1.604-1.802-2.731c-0.384-1.128-0.429-2.441-0.136-3.941c0.479-2.443,1.731-4.238,3.755-5.385
					c2.027-1.146,4.438-1.446,7.228-0.9c2.791,0.546,4.887,1.626,6.287,3.241c1.399,1.614,2.001,3.585,1.804,5.91l-4.207-0.823
					c0.111-1.159-0.231-2.235-1.031-3.228c-0.801-0.993-2.016-1.649-3.639-1.967c-1.625-0.317-3.031-0.167-4.219,0.451
					C734.122,413.752,733.373,414.853,733.063,416.435z"/>
			</g>
			<g>
				<path style="fill:#FFFFFF;" d="M752.231,431.647l3.667-18.745l3.834,0.75l-3.667,18.745c-0.468,2.389-0.188,4.296,0.846,5.724
					c1.032,1.428,2.661,2.358,4.882,2.793c2.223,0.435,4.086,0.188,5.595-0.743c1.508-0.931,2.497-2.59,2.965-4.978l3.667-18.745
					l3.789,0.741l-3.667,18.745c-0.663,3.389-2.203,5.77-4.619,7.142c-2.416,1.373-5.213,1.748-8.393,1.126
					c-3.182-0.622-5.625-2.023-7.332-4.202C752.09,437.818,751.567,435.035,752.231,431.647z"/>
			</g>
			<g>
				<path style="fill:#FFFFFF;" d="M784.448,436.09l-2.331,11.914l-3.791-0.742l5.647-28.867l9.373,1.833
					c3.25,0.636,5.574,1.912,6.972,3.829c1.398,1.917,1.871,4.021,1.423,6.313c-0.448,2.291-1.446,4.078-2.993,5.36
					c-1.547,1.284-3.609,1.875-6.185,1.774l5.594,13.637l-4.75-0.929l-5.249-13.397L784.448,436.09z M787.17,422.177l-2.135,10.914
					l5.582,1.092c2.082,0.407,3.725,0.232,4.926-0.528c1.2-0.76,1.971-2,2.308-3.723c0.712-3.638-0.989-5.858-5.099-6.663
					L787.17,422.177z"/>
			</g>
			<g>
				<path style="fill:#FFFFFF;" d="M823.94,456.185l-1.012-6.771l-12.83-2.511l-3.488,5.892l-3.875-0.758l16.147-26.814l4.164,0.815
					l4.81,30.913L823.94,456.185z M811.767,444.116l10.664,2.087l-2.412-15.957L811.767,444.116z"/>
			</g>
			<g>
				<path style="fill:#FFFFFF;" d="M857.497,432.778l3.789,0.741l-5.647,28.867l-3.789-0.741l-10.764-25.893l-4.482,22.911
					l-3.791-0.742l5.648-28.867l3.791,0.741l10.764,25.895L857.497,432.778z"/>
			</g>
			<g>
				<path style="fill:#FFFFFF;" d="M865.402,460.231c-2.29-3.331-3.016-7.127-2.182-11.391c0.834-4.263,2.935-7.499,6.31-9.708
					c3.373-2.209,7.128-2.908,11.267-2.1c3,0.588,5.533,1.818,7.604,3.694c2.07,1.875,3.399,4.255,3.987,7.138l-4.58-0.896
					c-1.089-3.586-3.643-5.773-7.671-6.561c-3.137-0.614-5.93-0.086-8.375,1.583c-2.448,1.67-4.004,4.212-4.672,7.629
					c-0.669,3.415-0.186,6.364,1.448,8.847c1.634,2.482,4.021,4.029,7.157,4.644c1.918,0.375,3.707,0.286,5.373-0.269
					c1.666-0.553,3.069-1.54,4.213-2.959l4.58,0.896c-1.631,2.447-3.759,4.151-6.383,5.108c-2.625,0.957-5.435,1.143-8.435,0.556
					C870.904,465.634,867.691,463.564,865.402,460.231z"/>
			</g>
			<g>
				<path style="fill:#FFFFFF;" d="M915.19,444.065l-0.587,2.999l-11.496-2.249l-1.923,9.831l10.246,2.004l-0.579,2.958
					l-10.246-2.005l-1.972,10.081l11.496,2.249l-0.587,2.999l-15.289-2.991l5.648-28.867L915.19,444.065z"/>
			</g>
		</g>
		<g>
			<path style="fill:#D67086;" d="M473.391,316.85c0,0-8.703,0.848-13.796,7.222c-5.093,6.373-21.217,35.262-21.035,57.687
				c0.182,22.425-3.286,50.287,41.065,69.715c22.089,7.208,22.588-12.584,40.255-13.782c17.667-1.199,32.932,4.966,30.51-22.498
				c-2.421-27.463-19.753-33.655-29.368-64.314C511.407,320.222,496.275,307.84,473.391,316.85z"/>
		</g>
		<g>
			<polygon style="fill:#D67086;" points="467.015,318.619 427.724,331.912 398.057,336.218 398.5,349.089 427.444,353.146 
				458.564,347.021 			"/>
		</g>
		<g>
			<polygon style="fill:#D67086;" points="503.705,315.146 532.361,325.529 556.405,317.023 560.139,325.078 537.46,341.524 
				514.773,343.064 			"/>
		</g>
		<g>
			<g>
				<path style="fill:#292949;" d="M496.414,259.917c0,0,17.944,11.827,16.312,29.689c0,0,11.764-9.435,6.723-22.574
					c-5.041-13.139-8.406-18.314-20.845-15.539C486.165,254.269,496.414,259.917,496.414,259.917z"/>
			</g>
			<g>
				<path style="fill:#FCD8B9;" d="M512.541,279.655c-2.178-26.61-35.196-25.539-46.763-5.398
					c-6.578,11.453-7.818,35.062,6.708,40.571c-0.016,2.333-0.174,6.695,1.426,8.425c1.732,1.874,7.915,0.915,10.33,0.618
					c0.67-0.082,1.372-0.198,1.896-0.624c0.656-0.533,0.924-2.116,1.122-3.882c1.743,0.065,3.55-0.086,5.417-0.488
					c7.832-1.69,14.055-8.129,17.13-15.539C512.881,295.927,513.195,287.651,512.541,279.655z"/>
			</g>
			<g>
				<path style="fill:#292949;" d="M500.607,266.925c-9.247,9.704-23.917,10.327-32.725,19.749c0,0-5.759,6.164-4.282,20.849
					c0,0-15.377,0.649-22.12-14.677c-6.743-15.327,8.781-45.532,8.781-45.532s18.201-13.232,42.072-7.624
					c8.099,1.903,15.395,8.007,13.628,17.232C505.204,260.868,503.243,264.158,500.607,266.925z"/>
			</g>
		</g>
		<g>
			<path style="fill:#D67086;" d="M466.693,318.947c0,0-1.811,13.454,5.316,14.977c7.127,1.523,23.564-1.475,26.394-3.941
				c3.925-3.42,0.009-13.316,0.009-13.316l5.291-1.522c0,0,24.46,49.944,4.758,57.444c-19.702,7.5-44.643,9.623-48.724-6.155
				c-4.081-15.777,1.75-45.337,1.75-45.337L466.693,318.947z"/>
		</g>
		<g>
			<polygon style="fill:#FCD8B9;" points="398.105,337.606 383.585,334.19 382.932,337.244 392.827,345.747 390.355,347.348 
				392.174,348.802 398.435,347.196 			"/>
		</g>
		<g>
			<polygon style="fill:#FCD8B9;" points="556.757,318.065 560.496,313.443 567.841,313.948 569.807,319.692 566.465,325.365 
				560.112,324.681 			"/>
		</g>
		<g>
			<polygon style="fill:#353A85;" points="614.976,650.851 618.602,805.579 591.808,1005.452 569.385,1005.718 553.038,821.78 
				520.17,638.039 			"/>
		</g>
		<g>
			<polygon style="fill:#292949;" points="569.482,1003.047 569.626,1015.172 594.018,1027.008 605.998,1014.74 593.73,1002.76 			
				"/>
		</g>
		<g>
			<polygon style="fill:#292949;" points="493.178,1008.889 512.459,1025.277 507.639,1034.918 471.97,1027.205 471.97,1008.889 			
				"/>
		</g>
		<g>
			<polygon style="fill:#353A85;" points="537.219,711.718 521.193,861.693 500.047,1011.185 469.887,1009.751 470.987,854.669 
				452.832,710.832 495.47,690.971 			"/>
		</g>
		<g>
			<path style="fill:#8CABEF;" d="M555,436c0.003,0.003,37.243,24.629,60.913,104.501c24.103,81.334,20.544,188.934,20.544,188.934
				S424.613,765.287,429,730c0,0-7-285,87-292C520.274,437.682,552.693,434.228,555,436z"/>
		</g>
		<g>
			<path style="fill:#FFFFFF;" d="M546,444c15.983,38.966,27.964,75.717,44.383,114.504c9.729,22.983,9.832,46.987,11.22,71.466
				c1.38,24.337,2.761,48.673,4.141,73.01c0.583,10.282,1.167,20.565,1.75,30.847l-88.542,9.295
				c5.101-29.48,10.93-58.839,15.484-88.41c4.2-27.273,10.643-57.893,5.627-85.388c-2.441-13.383-5.081-26.758-7.589-40.14
				C527.873,504.633,525.816,479.51,521,455c-0.337-1.714,3.456-11.284,4-13L546,444z"/>
		</g>
		<g>
			<g>
				<path style="fill:#FCD8B9;" d="M521.154,442.358l0.052,4.603l-24.14,56.681l-10.672-3.53l6.249-55.17l16.605-9.426
					C514.527,432.52,521.085,436.288,521.154,442.358z"/>
			</g>
			<g>
				<polygon style="fill:#292949;" points="498.474,502.994 504.24,513.371 499.734,515.979 485.631,506.578 486.571,499.056 				
					"/>
			</g>
		</g>
		<g>
			<g>
				<path style="fill:#E0C5A9;" d="M567.132,424.435l2.774,3.674l14.211,59.947l-10.684,3.492l-27.714-48.112l7.77-17.441
					C555.96,420.45,563.474,419.591,567.132,424.435z"/>
			</g>
			<g>
				<polygon style="fill:#292949;" points="584.865,487.698 595.664,492.628 593.586,497.4 576.656,498.204 572.948,491.592 				"/>
			</g>
		</g>
		<g>
			<g>
				<path style="fill:#FCD8B9;" d="M545.632,445.482c-6.9-1.11-13.801-2.221-20.701-3.331c0.271-5.567,0.987-11.113,2.14-16.566
					c-5.663-2.386-12.164-5.844-12.804-11.955c-0.202-1.925,0.246-3.852,0.691-5.736c1.838-7.787,3.677-15.575,5.515-23.362
					c0.636-2.693,1.307-5.465,2.929-7.707c2.846-3.934,7.996-5.418,12.822-5.957c12.316-1.375,25.435,2.073,34.399,10.629
					c2.386,2.277,4.504,4.969,5.425,8.136c1.419,4.883-0.18,10.077-1.768,14.908c-1.465,4.459-2.931,8.918-4.396,13.377
					c-1.685,5.129-4.022,10.933-9.162,12.582c-2.729,0.876-5.859,0.381-8.366,1.77C547.933,434.718,548.122,441.083,545.632,445.482
					z"/>
			</g>
			<g>
				<path style="fill:#292949;" d="M618.35,371.029c0.471-5.388,0.051-10.895-0.721-15.882c-1.327-8.57-11.066-12.991-19.664-14.126
					c-18.569-2.453-36.042-12.027-54.66-6.633c-10.642,3.083-24.679,3.11-34.427,7.784c-4.07,1.952-7.421,5.185-10.099,8.818
					c-9.281,12.589-10.426,30.654-2.81,44.314c1.709,3.065,3.805,5.898,6.022,8.617c4.59,5.628,10.068,12.568,16.708,14.954
					c0.529-6.038-3.821-25.442,1.125-30.116c7.849-7.417,24.347-3.66,33.372-1.168c9.845,2.719,18.305,10.322,28.101,12.432
					c7.049,1.518,16.341-1.419,22.616-4.729C613.744,390.108,617.5,380.763,618.35,371.029z"/>
			</g>
		</g>
		<g>
			<polygon style="fill:#8CABEF;" points="493,445 383,513 406,550 474,518 			"/>
		</g>
		<g>
			<polygon style="fill:#ABC3EF;" points="457.688,416.48 382.839,513.018 405.999,550.242 432,538 474.378,428.581 			"/>
		</g>
		<g>
			<polygon style="fill:#FCD8B9;" points="460.991,418.875 471,406 495,402 499,412 487,422 471.811,426.72 			"/>
		</g>
		<g>
			<g>
				<path style="fill:#D67086;" d="M446.885,876.793c0,0,7.098,5.978,12.031-5.641c4.933-11.619,10.081-9.953,12.935-5.85
					c2.854,4.103-3.264,3.82-6.532,12.942c-5.209,14.541-12.159,25.674-14.663,27.206c-2.503,1.532-10.12,5.222-10.273,10.961
					c-0.153,5.739-7.399-17.351-6.704-18.464C434.375,896.833,446.885,876.793,446.885,876.793z"/>
			</g>
			<g>
				<path style="fill:#F9F9F9;" d="M450.267,893.718c0,0,4.747,7.975,13.215-1.386c8.468-9.361,12.786-6.099,14.138-1.287
					c1.352,4.811-4.336,2.539-10.413,10.086c-9.687,12.031-19.902,20.271-22.769,20.898s-11.272,1.617-13.297,6.989
					c-2.025,5.372-1.304-18.818-0.283-19.642C431.879,908.551,450.267,893.718,450.267,893.718z"/>
			</g>
			<g>
				<path style="fill:#D67086;" d="M392.107,945.778c0,0,9.565,26.549,4.886,33.793c-4.679,7.244-17.606,31.236-15.647,35.301
					c1.958,4.065,0.95,5.904-2.522,4.599c-3.471-1.305-8.278-4.539-6.29-13.618c1.987-9.079,5.985-19.624,2.988-27.249
					c-2.997-7.625,3.692-30.077,3.692-30.077L392.107,945.778z"/>
			</g>
			<g>
				<path style="fill:#F9F9F9;" d="M401.783,851.569c0,0-9.878-1.525-9.177,9.743c0.702,11.268-10,30.89-27.591,45.438
					c-17.194,14.219-33.283,36.26-13.349,61.186c19.934,24.926,57.761-0.97,65.892-15.235c8.131-14.264,30.803-23.319,35.452-44.399
					c4.649-21.079-7.112-30.742-7.672-37.28C444.779,864.484,401.783,851.569,401.783,851.569z"/>
			</g>
			<g>
				<path style="fill:#F9F9F9;" d="M392.448,966.357c0,0,5.092,13.584-5.137,23.25c-10.228,9.666-19.644,14.046-23.327,21.077
					c-3.683,7.031,4.38,9.415-1.759,9.408c-6.139-0.008-10.26-0.954-9.713-8.57c0.547-7.617,13.012-14.234,11.323-24.9
					c-1.69-10.667-9.907-12.853-10.863-20.715c-0.956-7.863,23.327-21.077,23.327-21.077l17.628,22.068L392.448,966.357z"/>
			</g>
			<g>
				<path style="fill:#D67086;" d="M346.372,955.791c-1.51,0.687-9.441,4.481-16.226-2.817c-6.785-7.298-7.149-17.703,0.506-24.104
					c7.655-6.401,13.436,0.541,12.745,2.902c-0.69,2.361-8.939,11.462-0.415,18.576
					C347.093,952.972,346.372,955.791,346.372,955.791z"/>
			</g>
			<g>
				<path style="fill:#474EBB;" d="M447.604,866.836l-2.69,3.441c0,0-15.237,9.415-39.224-7.172
					c-10.154-9.429-8.253-11.898-8.253-11.898l4.438-0.097C401.875,851.109,415.662,873.692,447.604,866.836z"/>
			</g>
			<g>
				<path style="fill:#D67086;" d="M417.61,812.786c0,0,1.034-2.927,5.703-4.184c4.669-1.257,13.691,4.679,15.571,4.88
					c1.88,0.201,6.303,0.203,2.497,2.811C437.575,818.901,420.823,817.044,417.61,812.786z"/>
			</g>
			<g>
				<path style="fill:#F9F9F9;" d="M403.94,827.016c0,0,4.943-12.054,15.919-14.833c6.484-1.642,12.986-0.347,18.882,2.607
					c3.003,1.505,5.589,3.576,8.472,5.249c1.912,1.11,4.007,1.315,5.913,2.568c4.511,2.968,7.913,9.475,7.776,14.873
					c-0.137,5.398,9.255,18.835-6.791,26.632c-16.046,7.797-40.998,3.087-47.939-4.529
					C399.23,851.968,392.754,844.109,403.94,827.016z"/>
			</g>
			<g>
				<path style="fill:#D67086;" d="M407.001,827.586c0,0-5.78-1.812-9.478,1.305c-3.697,3.117-7.215,3.18-5.958,7.849
					c1.257,4.669,3.35,16.596,9.841,18.824c6.492,2.229,2.804-7.089,4.843-11.113C408.288,840.426,410.415,828.268,407.001,827.586z
					"/>
			</g>
		</g>
	</g>
</g>
</svg>
